<svg xmlns="http://www.w3.org/2000/svg" viewBox="0 0 900 900" fill="none">
<g stroke="white" stroke-width="1" stroke-linejoin="round" stroke-linecap="round">
<path d="M 0 160 L 10.1 160 L 20.2 160 L 30.3 160 L 40.4 160 L 50.6 160 L 60.7 160 L 70.8 160 L 80.9 160 L 91 160 L 101.1 160 L 111.2 160 L 121.3 160 L 131.5 160 L 141.6 160 L 151.7 160 L 161.8 160 L 171.9 160 L 182 160 L 192.1 160 L 202.2 160 L 212.4 160 L 222.5 160 L 232.6 160 L 242.7 160 L 252.8 160 L 262.9 160 L 273 160 L 283.1 159.7 L 293.3 159.1 L 303.4 158.4 L 313.5 157.8 L 323.6 157.3 L 333.7 156.8 L 343.8 156 L 353.9 154.9 L 364 155.1 L 374.2 154.8 L 384.3 155 L 394.4 156.6 L 404.5 157.3 L 414.6 157.8 L 424.7 157.4 L 434.8 158.1 L 444.9 158.9 L 455.1 159 L 465.2 157.6 L 475.3 155.4 L 485.4 154.3 L 495.5 154.7 L 505.6 154.1 L 515.7 154.8 L 525.8 153.3 L 536 153.4 L 546.1 153.1 L 556.2 154 L 566.3 153.6 L 576.4 154 L 586.5 154.1 L 596.6 154.6 L 606.7 155.6 L 616.9 156.7 L 627 157.3 L 637.1 158.2 L 647.2 159 L 657.3 159.5 L 667.4 159.9 L 677.5 160 L 687.6 160 L 697.8 160 L 707.9 160 L 718 160 L 728.1 160 L 738.2 160 L 748.3 160 L 758.4 160 L 768.5 160 L 778.7 160 L 788.8 160 L 798.9 160 L 809 160 L 819.1 160 L 829.2 160 L 839.3 160 L 849.4 160 L 859.6 160 L 869.7 160 L 879.8 160 L 889.9 160 L 900 160" stroke-opacity="0.16"/>
<path d="M 0 180 L 10.1 180 L 20.2 180 L 30.3 180 L 40.4 180 L 50.6 180 L 60.7 180 L 70.8 180 L 80.9 180 L 91 180 L 101.1 180 L 111.2 180 L 121.3 180 L 131.5 180 L 141.6 180 L 151.7 180 L 161.8 180 L 171.9 180 L 182 180 L 192.1 180 L 202.2 180 L 212.4 180 L 222.5 180 L 232.6 180 L 242.7 179.8 L 252.8 179.3 L 262.9 178.5 L 273 177.6 L 283.1 176.7 L 293.3 176.6 L 303.4 175.1 L 313.5 174.9 L 323.6 174.4 L 333.7 174.5 L 343.8 173.8 L 353.9 175.2 L 364 173.5 L 374.2 175.2 L 384.3 175.6 L 394.4 177 L 404.5 176 L 414.6 179 L 424.7 179 L 434.8 177.2 L 444.9 176.2 L 455.1 172.7 L 465.2 170.6 L 475.3 168.1 L 485.4 166.4 L 495.5 163.3 L 505.6 163.9 L 515.7 165.5 L 525.8 163.7 L 536 165.6 L 546.1 165.6 L 556.2 167.6 L 566.3 167.8 L 576.4 170.6 L 586.5 169.8 L 596.6 170 L 606.7 172.3 L 616.9 172.7 L 627 174.2 L 637.1 174.6 L 647.2 176.1 L 657.3 177.3 L 667.4 177.6 L 677.5 178.4 L 687.6 179.3 L 697.8 179.7 L 707.9 180 L 718 180 L 728.1 180 L 738.2 180 L 748.3 180 L 758.4 180 L 768.5 180 L 778.7 180 L 788.8 180 L 798.9 180 L 809 180 L 819.1 180 L 829.2 180 L 839.3 180 L 849.4 180 L 859.6 180 L 869.7 180 L 879.8 180 L 889.9 180 L 900 180" stroke-opacity="0.18"/>
<path d="M 0 200 L 10.1 200 L 20.2 200 L 30.3 200 L 40.4 200 L 50.6 200 L 60.7 200 L 70.8 200 L 80.9 200 L 91 200 L 101.1 200 L 111.2 200 L 121.3 200 L 131.5 200 L 141.6 200 L 151.7 200 L 161.8 200 L 171.9 200 L 182 200 L 192.1 200 L 202.2 200 L 212.4 199.9 L 222.5 199.4 L 232.6 198.3 L 242.7 197.6 L 252.8 196.6 L 262.9 195.3 L 273 194.7 L 283.1 194.5 L 293.3 195.1 L 303.4 194 L 313.5 195.3 L 323.6 196.7 L 333.7 198 L 343.8 197 L 353.9 196.1 L 364 195.8 L 374.2 196.1 L 384.3 195 L 394.4 193.4 L 404.5 192.9 L 414.6 190 L 424.7 185.8 L 434.8 184.7 L 444.9 187.1 L 455.1 184.3 L 465.2 177.8 L 475.3 178.3 L 485.4 177.8 L 495.5 175.1 L 505.6 173.6 L 515.7 177 L 525.8 175 L 536 179.8 L 546.1 179.7 L 556.2 182.1 L 566.3 182.7 L 576.4 185.5 L 586.5 186.2 L 596.6 185.1 L 606.7 186.1 L 616.9 187.3 L 627 188.1 L 637.1 189 L 647.2 191.8 L 657.3 193.1 L 667.4 195.1 L 677.5 195.3 L 687.6 196.9 L 697.8 198.3 L 707.9 198.9 L 718 199.5 L 728.1 199.9 L 738.2 200 L 748.3 200 L 758.4 200 L 768.5 200 L 778.7 200 L 788.8 200 L 798.9 200 L 809 200 L 819.1 200 L 829.2 200 L 839.3 200 L 849.4 200 L 859.6 200 L 869.7 200 L 879.8 200 L 889.9 200 L 900 200" stroke-opacity="0.21"/>
<path d="M 0 220 L 10.1 220 L 20.2 220 L 30.3 220 L 40.4 220 L 50.6 220 L 60.7 220 L 70.8 220 L 80.9 220 L 91 220 L 101.1 220 L 111.2 220 L 121.3 220 L 131.5 220 L 141.6 220 L 151.7 220 L 161.8 220 L 171.9 220 L 182 220 L 192.1 219.8 L 202.2 219.2 L 212.4 218.4 L 222.5 217.5 L 232.6 216.1 L 242.7 215.4 L 252.8 213.7 L 262.9 213.9 L 273 214.8 L 283.1 213.4 L 293.3 216.6 L 303.4 215.6 L 313.5 218 L 323.6 217 L 333.7 217.7 L 343.8 214.4 L 353.9 212.3 L 364 208.6 L 374.2 205.2 L 384.3 201.6 L 394.4 201.7 L 404.5 197.2 L 414.6 191.9 L 424.7 190.4 L 434.8 193.6 L 444.9 189.5 L 455.1 190.8 L 465.2 186.7 L 475.3 186.2 L 485.4 188.6 L 495.5 186.7 L 505.6 187.9 L 515.7 192.2 L 525.8 188.4 L 536 195.7 L 546.1 193.5 L 556.2 194.5 L 566.3 201.4 L 576.4 196.7 L 586.5 200.9 L 596.6 198.3 L 606.7 201.9 L 616.9 200.9 L 627 200.8 L 637.1 203.3 L 647.2 205.3 L 657.3 209.3 L 667.4 213.2 L 677.5 213.7 L 687.6 216.8 L 697.8 217.5 L 707.9 218.2 L 718 219.1 L 728.1 219.2 L 738.2 219.7 L 748.3 219.9 L 758.4 220 L 768.5 220 L 778.7 220 L 788.8 220 L 798.9 220 L 809 220 L 819.1 220 L 829.2 220 L 839.3 220 L 849.4 220 L 859.6 220 L 869.7 220 L 879.8 220 L 889.9 220 L 900 220" stroke-opacity="0.25"/>
<path d="M 0 240 L 10.1 240 L 20.2 240 L 30.3 240 L 40.4 240 L 50.6 240 L 60.7 240 L 70.8 240 L 80.9 240 L 91 240 L 101.1 240 L 111.2 240 L 121.3 240 L 131.5 240 L 141.6 240 L 151.7 240 L 161.8 240 L 171.9 239.7 L 182 239.1 L 192.1 238.4 L 202.2 237.3 L 212.4 237.4 L 222.5 236.3 L 232.6 236.7 L 242.7 235.8 L 252.8 235.1 L 262.9 234.9 L 273 233.5 L 283.1 235.5 L 293.3 232.1 L 303.4 234.3 L 313.5 230.7 L 323.6 229.4 L 333.7 228.4 L 343.8 228.9 L 353.9 219.6 L 364 212.7 L 374.2 214 L 384.3 210 L 394.4 199.4 L 404.5 199.8 L 414.6 202.7 L 424.7 198.5 L 434.8 199.9 L 444.9 204.1 L 455.1 201.7 L 465.2 201.1 L 475.3 206.9 L 485.4 201.9 L 495.5 199.7 L 505.6 203.4 L 515.7 197.4 L 525.8 199.2 L 536 199.9 L 546.1 203.3 L 556.2 202.5 L 566.3 212.5 L 576.4 212.7 L 586.5 216.5 L 596.6 213.8 L 606.7 216.7 L 616.9 219.1 L 627 223.5 L 637.1 223.2 L 647.2 226.8 L 657.3 229.7 L 667.4 231.3 L 677.5 235.2 L 687.6 237 L 697.8 237.2 L 707.9 239.4 L 718 238.6 L 728.1 239.2 L 738.2 238.4 L 748.3 239 L 758.4 239 L 768.5 239.6 L 778.7 240 L 788.8 240 L 798.9 240 L 809 240 L 819.1 240 L 829.2 240 L 839.3 240 L 849.4 240 L 859.6 240 L 869.7 240 L 879.8 240 L 889.9 240 L 900 240" stroke-opacity="0.28"/>
<path d="M 0 260 L 10.1 260 L 20.2 260 L 30.3 260 L 40.4 260 L 50.6 260 L 60.7 260 L 70.8 260 L 80.9 260 L 91 260 L 101.1 260 L 111.2 260 L 121.3 260 L 131.5 260 L 141.6 260 L 151.7 259.9 L 161.8 259.4 L 171.9 258.7 L 182 257.7 L 192.1 258.2 L 202.2 257.5 L 212.4 258.3 L 222.5 258.6 L 232.6 259.5 L 242.7 256.5 L 252.8 256.3 L 262.9 253.5 L 273 251 L 283.1 247.4 L 293.3 243.5 L 303.4 245.2 L 313.5 239.9 L 323.6 240.5 L 333.7 231.6 L 343.8 232.7 L 353.9 224.7 L 364 226.3 L 374.2 218.6 L 384.3 216.2 L 394.4 211.9 L 404.5 209.7 L 414.6 213 L 424.7 214 L 434.8 209.6 L 444.9 211.5 L 455.1 224.3 L 465.2 214.3 L 475.3 215.5 L 485.4 210.3 L 495.5 207.7 L 505.6 215.6 L 515.7 207.1 L 525.8 208.1 L 536 211.5 L 546.1 214.9 L 556.2 213.3 L 566.3 228.9 L 576.4 228.5 L 586.5 232.5 L 596.6 239.4 L 606.7 239.9 L 616.9 246.7 L 627 249.4 L 637.1 249.5 L 647.2 253.5 L 657.3 251.8 L 667.4 252.2 L 677.5 255.6 L 687.6 253.6 L 697.8 256.5 L 707.9 255.3 L 718 254.5 L 728.1 255.1 L 738.2 255.3 L 748.3 255.3 L 758.4 256.1 L 768.5 257.1 L 778.7 258.5 L 788.8 259.6 L 798.9 260 L 809 260 L 819.1 260 L 829.2 260 L 839.3 260 L 849.4 260 L 859.6 260 L 869.7 260 L 879.8 260 L 889.9 260 L 900 260" stroke-opacity="0.32"/>
<path d="M 0 280 L 10.1 280 L 20.2 280 L 30.3 280 L 40.4 280 L 50.6 280 L 60.7 280 L 70.8 280 L 80.9 280 L 91 280 L 101.1 280 L 111.2 280 L 121.3 280 L 131.5 280 L 141.6 279.8 L 151.7 279.3 L 161.8 278.6 L 171.9 278.2 L 182 278.1 L 192.1 277.4 L 202.2 278.2 L 212.4 278.1 L 222.5 276.3 L 232.6 275.6 L 242.7 272 L 252.8 272.4 L 262.9 265.6 L 273 263 L 283.1 252.1 L 293.3 250.2 L 303.4 245.4 L 313.5 240 L 323.6 245.8 L 333.7 237.3 L 343.8 241.1 L 353.9 237.1 L 364 240.3 L 374.2 230.4 L 384.3 229.3 L 394.4 232.6 L 404.5 223.6 L 414.6 223.8 L 424.7 215.4 L 434.8 227.9 L 444.9 224.3 L 455.1 229 L 465.2 221 L 475.3 231.4 L 485.4 229.3 L 495.5 215.4 L 505.6 218.8 L 515.7 225.2 L 525.8 227.9 L 536 223.7 L 546.1 240.9 L 556.2 237.8 L 566.3 246.4 L 576.4 255.2 L 586.5 267.2 L 596.6 273.4 L 606.7 277.3 L 616.9 277.1 L 627 274.2 L 637.1 273.2 L 647.2 268.4 L 657.3 267 L 667.4 265.6 L 677.5 262.6 L 687.6 267.2 L 697.8 265.7 L 707.9 264.8 L 718 265.9 L 728.1 267.5 L 738.2 268.4 L 748.3 269.5 L 758.4 272.4 L 768.5 274.7 L 778.7 275.7 L 788.8 278 L 798.9 279 L 809 280 L 819.1 280 L 829.2 280 L 839.3 280 L 849.4 280 L 859.6 280 L 869.7 280 L 879.8 280 L 889.9 280 L 900 280" stroke-opacity="0.36"/>
<path d="M 0 300 L 10.1 300 L 20.2 300 L 30.3 300 L 40.4 300 L 50.6 300 L 60.7 300 L 70.8 300 L 80.9 300 L 91 300 L 101.1 300 L 111.2 300 L 121.3 300 L 131.5 299.8 L 141.6 299.4 L 151.7 298.8 L 161.8 299 L 171.9 297.2 L 182 295.8 L 192.1 295.6 L 202.2 292.4 L 212.4 292.9 L 222.5 292 L 232.6 290 L 242.7 282.4 L 252.8 279.4 L 262.9 276.1 L 273 268.6 L 283.1 267 L 293.3 262.4 L 303.4 259.9 L 313.5 256.5 L 323.6 258.5 L 333.7 250.1 L 343.8 255.4 L 353.9 254.6 L 364 256.7 L 374.2 255.9 L 384.3 239.7 L 394.4 236.2 L 404.5 232.2 L 414.6 227.8 L 424.7 223.7 L 434.8 228 L 444.9 219.3 L 455.1 232.8 L 465.2 231.9 L 475.3 241.8 L 485.4 248 L 495.5 239.2 L 505.6 254.5 L 515.7 248.7 L 525.8 252.6 L 536 267.2 L 546.1 267.3 L 556.2 272.5 L 566.3 279.6 L 576.4 280.9 L 586.5 285.6 L 596.6 287.4 L 606.7 294.5 L 616.9 284.1 L 627 285.7 L 637.1 274.9 L 647.2 270 L 657.3 272.3 L 667.4 271.6 L 677.5 269 L 687.6 271.7 L 697.8 272.1 L 707.9 278.4 L 718 277.7 L 728.1 281 L 738.2 286.3 L 748.3 288 L 758.4 290.8 L 768.5 292.7 L 778.7 294.6 L 788.8 295.7 L 798.9 297.8 L 809 298.9 L 819.1 299.8 L 829.2 300 L 839.3 300 L 849.4 300 L 859.6 300 L 869.7 300 L 879.8 300 L 889.9 300 L 900 300" stroke-opacity="0.40"/>
<path d="M 0 320 L 10.1 320 L 20.2 320 L 30.3 320 L 40.4 320 L 50.6 320 L 60.7 320 L 70.8 320 L 80.9 320 L 91 320 L 101.1 320 L 111.2 320 L 121.3 319.8 L 131.5 319.7 L 141.6 319.4 L 151.7 318.5 L 161.8 316.6 L 171.9 313.3 L 182 312.6 L 192.1 307.1 L 202.2 305.9 L 212.4 304.8 L 222.5 301.6 L 232.6 299 L 242.7 294.6 L 252.8 288.8 L 262.9 284.4 L 273 280.2 L 283.1 282.3 L 293.3 272.9 L 303.4 271.4 L 313.5 267.6 L 323.6 273.3 L 333.7 261.8 L 343.8 265.6 L 353.9 266.7 L 364 265.7 L 374.2 260.7 L 384.3 242.8 L 394.4 251 L 404.5 240.5 L 414.6 235 L 424.7 222.8 L 434.8 239.5 L 444.9 247.8 L 455.1 255.3 L 465.2 265.3 L 475.3 273.3 L 485.4 288.4 L 495.5 283.4 L 505.6 290 L 515.7 300.9 L 525.8 300 L 536 295.8 L 546.1 303.1 L 556.2 296.6 L 566.3 297.5 L 576.4 286.5 L 586.5 296.3 L 596.6 293.1 L 606.7 292.3 L 616.9 286.3 L 627 285.5 L 637.1 278.7 L 647.2 278.1 L 657.3 267.6 L 667.4 271.5 L 677.5 272.3 L 687.6 281.3 L 697.8 283.7 L 707.9 292.8 L 718 294.5 L 728.1 298.2 L 738.2 304 L 748.3 306.3 L 758.4 308.1 L 768.5 311.5 L 778.7 312.8 L 788.8 314.2 L 798.9 315.8 L 809 317.7 L 819.1 318.8 L 829.2 319.7 L 839.3 320 L 849.4 320 L 859.6 320 L 869.7 320 L 879.8 320 L 889.9 320 L 900 320" stroke-opacity="0.45"/>
<path d="M 0 340 L 10.1 340 L 20.2 340 L 30.3 340 L 40.4 340 L 50.6 340 L 60.7 340 L 70.8 340 L 80.9 340 L 91 340 L 101.1 340 L 111.2 339.7 L 121.3 339.3 L 131.5 338.1 L 141.6 337.2 L 151.7 335.3 L 161.8 331.9 L 171.9 330.7 L 182 325.9 L 192.1 322.2 L 202.2 316.8 L 212.4 313.8 L 222.5 314.6 L 232.6 312.1 L 242.7 312.6 L 252.8 311.6 L 262.9 305.7 L 273 305.3 L 283.1 299.6 L 293.3 294.1 L 303.4 279.2 L 313.5 273 L 323.6 267.1 L 333.7 266.6 L 343.8 268.9 L 353.9 257.2 L 364 273.2 L 374.2 267.5 L 384.3 253.7 L 394.4 262.6 L 404.5 269.5 L 414.6 266.7 L 424.7 268.6 L 434.8 278.9 L 444.9 284.2 L 455.1 300.9 L 465.2 295.2 L 475.3 315.1 L 485.4 333 L 495.5 325 L 505.6 335 L 515.7 317.7 L 525.8 307.1 L 536 298.4 L 546.1 295.1 L 556.2 296.4 L 566.3 273.7 L 576.4 271.2 L 586.5 275.4 L 596.6 272.5 L 606.7 284.4 L 616.9 274.5 L 627 275.9 L 637.1 278.9 L 647.2 286.6 L 657.3 284.7 L 667.4 292.6 L 677.5 295.1 L 687.6 299.2 L 697.8 301.4 L 707.9 310.8 L 718 313.5 L 728.1 315.9 L 738.2 320.8 L 748.3 323.2 L 758.4 327.5 L 768.5 329.6 L 778.7 330.4 L 788.8 330.7 L 798.9 333.5 L 809 335.7 L 819.1 337.5 L 829.2 338.9 L 839.3 339.8 L 849.4 340 L 859.6 340 L 869.7 340 L 879.8 340 L 889.9 340 L 900 340" stroke-opacity="0.50"/>
<path d="M 0 360 L 10.1 360 L 20.2 360 L 30.3 360 L 40.4 360 L 50.6 360 L 60.7 360 L 70.8 360 L 80.9 360 L 91 360 L 101.1 359.7 L 111.2 358.8 L 121.3 357.9 L 131.5 356.3 L 141.6 354.2 L 151.7 351.8 L 161.8 347.8 L 171.9 347.8 L 182 342 L 192.1 337.1 L 202.2 337.1 L 212.4 332.3 L 222.5 330.5 L 232.6 326.4 L 242.7 331.1 L 252.8 324.1 L 262.9 324.6 L 273 315.6 L 283.1 311.4 L 293.3 297.8 L 303.4 296.9 L 313.5 275.9 L 323.6 275.8 L 333.7 277 L 343.8 281.9 L 353.9 278.3 L 364 279.5 L 374.2 297 L 384.3 290.8 L 394.4 300.6 L 404.5 304.4 L 414.6 325 L 424.7 314.1 L 434.8 307.6 L 444.9 324.7 L 455.1 317.3 L 465.2 333.7 L 475.3 334.3 L 485.4 323.2 L 495.5 334.6 L 505.6 323.4 L 515.7 323.8 L 525.8 306.6 L 536 299.7 L 546.1 267.7 L 556.2 265.2 L 566.3 265.5 L 576.4 259.3 L 586.5 261.2 L 596.6 281.3 L 606.7 291.4 L 616.9 294 L 627 295.6 L 637.1 307.5 L 647.2 307.2 L 657.3 312.9 L 667.4 309.7 L 677.5 312 L 687.6 318.4 L 697.8 318.3 L 707.9 326.3 L 718 329.9 L 728.1 330.6 L 738.2 334.9 L 748.3 338.7 L 758.4 342.9 L 768.5 344.7 L 778.7 349.4 L 788.8 351 L 798.9 352.8 L 809 354.8 L 819.1 357.1 L 829.2 358.6 L 839.3 359.4 L 849.4 360 L 859.6 360 L 869.7 360 L 879.8 360 L 889.9 360 L 900 360" stroke-opacity="0.55"/>
<path d="M 0 380 L 10.1 380 L 20.2 380 L 30.3 380 L 40.4 380 L 50.6 380 L 60.7 380 L 70.8 380 L 80.9 380 L 91 379.8 L 101.1 378.9 L 111.2 377.5 L 121.3 375.7 L 131.5 373.7 L 141.6 372.3 L 151.7 370.1 L 161.8 369.5 L 171.9 363.2 L 182 360.3 L 192.1 359 L 202.2 352.4 L 212.4 350.3 L 222.5 343.6 L 232.6 336.2 L 242.7 334.7 L 252.8 330.7 L 262.9 327.9 L 273 323.3 L 283.1 324.9 L 293.3 306.4 L 303.4 311.7 L 313.5 294.6 L 323.6 306.1 L 333.7 312.5 L 343.8 301.4 L 353.9 328 L 364 330.4 L 374.2 348.4 L 384.3 345.2 L 394.4 347.6 L 404.5 364.8 L 414.6 351.9 L 424.7 343.8 L 434.8 336.8 L 444.9 334.6 L 455.1 322.1 L 465.2 307.2 L 475.3 314.4 L 485.4 300.9 L 495.5 286 L 505.6 286.7 L 515.7 292.2 L 525.8 278.3 L 536 284.4 L 546.1 277.9 L 556.2 275.7 L 566.3 258.5 L 576.4 271.9 L 586.5 290.7 L 596.6 291.1 L 606.7 294.3 L 616.9 307.4 L 627 322.8 L 637.1 323.9 L 647.2 327.1 L 657.3 325.1 L 667.4 322.3 L 677.5 324.4 L 687.6 334.3 L 697.8 332.8 L 707.9 340.6 L 718 346.9 L 728.1 347.2 L 738.2 351.8 L 748.3 357.9 L 758.4 367.5 L 768.5 367.9 L 778.7 372.9 L 788.8 372.6 L 798.9 375.1 L 809 375.7 L 819.1 378 L 829.2 379.2 L 839.3 379.2 L 849.4 379.9 L 859.6 380 L 869.7 380 L 879.8 380 L 889.9 380 L 900 380" stroke-opacity="0.60"/>
<path d="M 0 400 L 10.1 400 L 20.2 400 L 30.3 400 L 40.4 400 L 50.6 400 L 60.7 400 L 70.8 400 L 80.9 400 L 91 399.4 L 101.1 398 L 111.2 396.9 L 121.3 395.3 L 131.5 393.7 L 141.6 391.1 L 151.7 388.9 L 161.8 388 L 171.9 381.7 L 182 377 L 192.1 373 L 202.2 364.6 L 212.4 358 L 222.5 354.6 L 232.6 355.4 L 242.7 350 L 252.8 341.7 L 262.9 352 L 273 343.5 L 283.1 340.3 L 293.3 352 L 303.4 350 L 313.5 338.6 L 323.6 342.3 L 333.7 349.7 L 343.8 357 L 353.9 364.8 L 364 382.5 L 374.2 390.5 L 384.3 381.2 L 394.4 394.1 L 404.5 364.6 L 414.6 366.6 L 424.7 332.6 L 434.8 329 L 444.9 309.1 L 455.1 299.4 L 465.2 288.2 L 475.3 282 L 485.4 276.3 L 495.5 270.9 L 505.6 262.4 L 515.7 280 L 525.8 274.4 L 536 297.3 L 546.1 292.4 L 556.2 287.8 L 566.3 297.8 L 576.4 301.7 L 586.5 309.1 L 596.6 303.3 L 606.7 314.3 L 616.9 314 L 627 324 L 637.1 331.3 L 647.2 340.3 L 657.3 347.8 L 667.4 347.9 L 677.5 338.5 L 687.6 343 L 697.8 355.1 L 707.9 363.9 L 718 364.1 L 728.1 373.2 L 738.2 376.9 L 748.3 384.2 L 758.4 392.5 L 768.5 395.5 L 778.7 394.6 L 788.8 398.6 L 798.9 397.7 L 809 398.4 L 819.1 398.3 L 829.2 398 L 839.3 398.4 L 849.4 399.2 L 859.6 399.9 L 869.7 400 L 879.8 400 L 889.9 400 L 900 400" stroke-opacity="0.66"/>
<path d="M 0 420 L 10.1 420 L 20.2 420 L 30.3 420 L 40.4 420 L 50.6 420 L 60.7 420 L 70.8 420 L 80.9 419.9 L 91 418.9 L 101.1 417.3 L 111.2 415.5 L 121.3 413.3 L 131.5 411.2 L 141.6 408.7 L 151.7 405.9 L 161.8 404.3 L 171.9 398.4 L 182 392.6 L 192.1 387.1 L 202.2 379.2 L 212.4 379 L 222.5 374 L 232.6 365.7 L 242.7 368.4 L 252.8 369.2 L 262.9 381.3 L 273 382.4 L 283.1 388.6 L 293.3 397.4 L 303.4 400.2 L 313.5 389.7 L 323.6 398.1 L 333.7 399.8 L 343.8 397.4 L 353.9 375.7 L 364 377.9 L 374.2 368.3 L 384.3 377.9 L 394.4 374.7 L 404.5 356.9 L 414.6 321.4 L 424.7 300.5 L 434.8 313.4 L 444.9 285.5 L 455.1 255.5 L 465.2 258.5 L 475.3 242.1 L 485.4 249.4 L 495.5 255.4 L 505.6 267.6 L 515.7 293.7 L 525.8 290.8 L 536 325.6 L 546.1 315.1 L 556.2 301.5 L 566.3 310 L 576.4 300.3 L 586.5 319.5 L 596.6 306.5 L 606.7 327.5 L 616.9 336.4 L 627 342.3 L 637.1 340.3 L 647.2 359.7 L 657.3 365.1 L 667.4 372.5 L 677.5 382.2 L 687.6 379.6 L 697.8 380.3 L 707.9 389 L 718 400.9 L 728.1 406.2 L 738.2 405.6 L 748.3 411.2 L 758.4 415.5 L 768.5 414.6 L 778.7 416.5 L 788.8 417.2 L 798.9 416.7 L 809 415.9 L 819.1 414.4 L 829.2 415.1 L 839.3 416.6 L 849.4 418.1 L 859.6 419.4 L 869.7 420 L 879.8 420 L 889.9 420 L 900 420" stroke-opacity="0.71"/>
<path d="M 0 440 L 10.1 440 L 20.2 440 L 30.3 440 L 40.4 440 L 50.6 440 L 60.7 440 L 70.8 440 L 80.9 439.6 L 91 438.4 L 101.1 436.5 L 111.2 434.7 L 121.3 430.6 L 131.5 427.7 L 141.6 425.8 L 151.7 423 L 161.8 421.9 L 171.9 418.4 L 182 413.7 L 192.1 409.4 L 202.2 404.6 L 212.4 404.7 L 222.5 408.5 L 232.6 401.6 L 242.7 412.9 L 252.8 408.6 L 262.9 418 L 273 423.9 L 283.1 433.7 L 293.3 432.3 L 303.4 433.7 L 313.5 418.6 L 323.6 405.8 L 333.7 397.3 L 343.8 382.4 L 353.9 380.9 L 364 371.1 L 374.2 349.4 L 384.3 329 L 394.4 347.2 L 404.5 320.8 L 414.6 321.1 L 424.7 291.1 L 434.8 294.2 L 444.9 299.3 L 455.1 285.8 L 465.2 264.2 L 475.3 269.2 L 485.4 282.9 L 495.5 291.8 L 505.6 279.5 L 515.7 305.6 L 525.8 333.9 L 536 308.5 L 546.1 324.4 L 556.2 333.4 L 566.3 313.1 L 576.4 322.1 L 586.5 332 L 596.6 317.3 L 606.7 330.2 L 616.9 354.3 L 627 359.5 L 637.1 369.7 L 647.2 399.9 L 657.3 401 L 667.4 413.7 L 677.5 410.3 L 687.6 426.2 L 697.8 422.8 L 707.9 426.1 L 718 424.7 L 728.1 424.1 L 738.2 426.5 L 748.3 429.3 L 758.4 429.2 L 768.5 430.9 L 778.7 431.7 L 788.8 430.5 L 798.9 428.9 L 809 431.5 L 819.1 431.6 L 829.2 433.4 L 839.3 435.1 L 849.4 437.3 L 859.6 439 L 869.7 440 L 879.8 440 L 889.9 440 L 900 440" stroke-opacity="0.77"/>
<path d="M 0 460 L 10.1 460 L 20.2 460 L 30.3 460 L 40.4 460 L 50.6 460 L 60.7 460 L 70.8 460 L 80.9 459.5 L 91 457.8 L 101.1 455.7 L 111.2 453 L 121.3 450.7 L 131.5 446.2 L 141.6 446.1 L 151.7 444.8 L 161.8 440.9 L 171.9 440.7 L 182 443.9 L 192.1 441.2 L 202.2 439.6 L 212.4 438.6 L 222.5 438.7 L 232.6 440.1 L 242.7 442.9 L 252.8 440.2 L 262.9 440.7 L 273 446 L 283.1 437.8 L 293.3 440.1 L 303.4 439.4 L 313.5 421.6 L 323.6 413.3 L 333.7 378 L 343.8 358.3 L 353.9 360.8 L 364 346.2 L 374.2 348.9 L 384.3 334.8 L 394.4 317.4 L 404.5 317.9 L 414.6 322.6 L 424.7 317.2 L 434.8 304.7 L 444.9 300.2 L 455.1 296.3 L 465.2 277.6 L 475.3 298.4 L 485.4 270.1 L 495.5 278.4 L 505.6 276.8 L 515.7 302.7 L 525.8 295.4 L 536 317.7 L 546.1 335 L 556.2 344.9 L 566.3 333.7 L 576.4 340.5 L 586.5 346.3 L 596.6 359.7 L 606.7 387.8 L 616.9 400.1 L 627 399.5 L 637.1 416.3 L 647.2 431.3 L 657.3 440.4 L 667.4 452.4 L 677.5 446 L 687.6 448 L 697.8 452.5 L 707.9 437.2 L 718 434 L 728.1 438.4 L 738.2 436.1 L 748.3 438.5 L 758.4 436.4 L 768.5 437.4 L 778.7 440.2 L 788.8 443.8 L 798.9 445.9 L 809 446.5 L 819.1 451.2 L 829.2 452.3 L 839.3 455.1 L 849.4 456.9 L 859.6 458.7 L 869.7 459.9 L 879.8 460 L 889.9 460 L 900 460" stroke-opacity="0.83"/>
<path d="M 0 480 L 10.1 480 L 20.2 480 L 30.3 480 L 40.4 480 L 50.6 480 L 60.7 480 L 70.8 480 L 80.9 479.4 L 91 478.1 L 101.1 476 L 111.2 473.3 L 121.3 471.9 L 131.5 471.3 L 141.6 468 L 151.7 467.8 L 161.8 469.7 L 171.9 472.5 L 182 470 L 192.1 473.2 L 202.2 471.8 L 212.4 475.5 L 222.5 469.3 L 232.6 465.3 L 242.7 456.5 L 252.8 453.3 L 262.9 443.6 L 273 448.9 L 283.1 441.9 L 293.3 434.6 L 303.4 417.6 L 313.5 403.1 L 323.6 406.3 L 333.7 398.9 L 343.8 383.4 L 353.9 370.3 L 364 354.3 L 374.2 352.9 L 384.3 341.9 L 394.4 347.2 L 404.5 370 L 414.6 372.4 L 424.7 349 L 434.8 352.4 L 444.9 334.5 L 455.1 298 L 465.2 284.2 L 475.3 279.8 L 485.4 299.2 L 495.5 269.5 L 505.6 286.5 L 515.7 318.2 L 525.8 317.3 L 536 358 L 546.1 380.4 L 556.2 393.2 L 566.3 391.7 L 576.4 422.5 L 586.5 417.8 L 596.6 425.6 L 606.7 435.9 L 616.9 451.8 L 627 458.6 L 637.1 452.4 L 647.2 464.8 L 657.3 458.7 L 667.4 468.1 L 677.5 458.9 L 687.6 463.1 L 697.8 451.8 L 707.9 447.1 L 718 445.7 L 728.1 438.6 L 738.2 445.1 L 748.3 442 L 758.4 447.7 L 768.5 455.1 L 778.7 459.3 L 788.8 462.5 L 798.9 464.2 L 809 468 L 819.1 471.4 L 829.2 473.1 L 839.3 475.2 L 849.4 477.6 L 859.6 479 L 869.7 479.9 L 879.8 480 L 889.9 480 L 900 480" stroke-opacity="0.85"/>
<path d="M 0 500 L 10.1 500 L 20.2 500 L 30.3 500 L 40.4 500 L 50.6 500 L 60.7 500 L 70.8 500 L 80.9 499.7 L 91 498.8 L 101.1 497.7 L 111.2 496.9 L 121.3 495.4 L 131.5 493.3 L 141.6 494.5 L 151.7 494.7 L 161.8 496.2 L 171.9 494.2 L 182 495.3 L 192.1 495.2 L 202.2 492 L 212.4 489.8 L 222.5 476.2 L 232.6 466.8 L 242.7 460 L 252.8 459.5 L 262.9 444.1 L 273 438 L 283.1 436.1 L 293.3 441.6 L 303.4 432.8 L 313.5 427.1 L 323.6 423.1 L 333.7 420.8 L 343.8 407.6 L 353.9 401.6 L 364 380.2 L 374.2 368.7 L 384.3 384.6 L 394.4 374.3 L 404.5 378.6 L 414.6 373 L 424.7 366.3 L 434.8 349.9 L 444.9 363.7 L 455.1 349.1 L 465.2 316.3 L 475.3 302 L 485.4 331.1 L 495.5 312.3 L 505.6 348.5 L 515.7 384.3 L 525.8 386.7 L 536 404.3 L 546.1 425 L 556.2 463.8 L 566.3 462.2 L 576.4 477.9 L 586.5 482.3 L 596.6 476.5 L 606.7 462.9 L 616.9 477.5 L 627 467.6 L 637.1 459.8 L 647.2 452.2 L 657.3 453.5 L 667.4 464.9 L 677.5 458.9 L 687.6 457 L 697.8 450 L 707.9 449 L 718 454 L 728.1 458.5 L 738.2 456.4 L 748.3 464.1 L 758.4 468.6 L 768.5 474.7 L 778.7 479.3 L 788.8 485.3 L 798.9 488.4 L 809 490.8 L 819.1 492.1 L 829.2 494 L 839.3 496.2 L 849.4 497.6 L 859.6 499.1 L 869.7 500 L 879.8 500 L 889.9 500 L 900 500" stroke-opacity="0.79"/>
<path d="M 0 520 L 10.1 520 L 20.2 520 L 30.3 520 L 40.4 520 L 50.6 520 L 60.7 520 L 70.8 520 L 80.9 519.9 L 91 519.6 L 101.1 518.8 L 111.2 518.8 L 121.3 517.9 L 131.5 516 L 141.6 514.4 L 151.7 512.8 L 161.8 511.8 L 171.9 513.6 L 182 512 L 192.1 508.9 L 202.2 505.1 L 212.4 499.4 L 222.5 491.9 L 232.6 482.3 L 242.7 470.7 L 252.8 463.9 L 262.9 459.7 L 273 460.7 L 283.1 449.5 L 293.3 448.9 L 303.4 445.1 L 313.5 443.3 L 323.6 448.8 L 333.7 446.9 L 343.8 431.5 L 353.9 428.3 L 364 399 L 374.2 404.1 L 384.3 387.3 L 394.4 362.9 L 404.5 384 L 414.6 376.9 L 424.7 359.3 L 434.8 368.6 L 444.9 383.9 L 455.1 396.3 L 465.2 389.9 L 475.3 408.2 L 485.4 411 L 495.5 436.3 L 505.6 446.1 L 515.7 440.5 L 525.8 468.5 L 536 484 L 546.1 489.1 L 556.2 509.8 L 566.3 500.4 L 576.4 496.8 L 586.5 482.1 L 596.6 490.6 L 606.7 481.2 L 616.9 454.1 L 627 456.6 L 637.1 454.3 L 647.2 452.7 L 657.3 448.9 L 667.4 451.6 L 677.5 454.1 L 687.6 464.3 L 697.8 475.7 L 707.9 477.7 L 718 476.8 L 728.1 481.3 L 738.2 486.5 L 748.3 486.2 L 758.4 494.4 L 768.5 496.9 L 778.7 500.1 L 788.8 507.5 L 798.9 508.1 L 809 512.3 L 819.1 514 L 829.2 514.4 L 839.3 517.1 L 849.4 518.3 L 859.6 519.3 L 869.7 520 L 879.8 520 L 889.9 520 L 900 520" stroke-opacity="0.73"/>
<path d="M 0 540 L 10.1 540 L 20.2 540 L 30.3 540 L 40.4 540 L 50.6 540 L 60.7 540 L 70.8 540 L 80.9 540 L 91 539.8 L 101.1 539.5 L 111.2 539.1 L 121.3 538 L 131.5 535.6 L 141.6 534.1 L 151.7 531.4 L 161.8 528.9 L 171.9 525.9 L 182 522.4 L 192.1 517.6 L 202.2 514.6 L 212.4 515.8 L 222.5 507.1 L 232.6 498.6 L 242.7 494.7 L 252.8 494.8 L 262.9 487.9 L 273 478.7 L 283.1 486 L 293.3 476.9 L 303.4 474.6 L 313.5 473.6 L 323.6 465.4 L 333.7 462.2 L 343.8 445.6 L 353.9 447.3 L 364 416 L 374.2 416 L 384.3 403.8 L 394.4 403.7 L 404.5 418.4 L 414.6 416.7 L 424.7 426.2 L 434.8 428.5 L 444.9 444.7 L 455.1 476.4 L 465.2 486.1 L 475.3 489.9 L 485.4 494.8 L 495.5 480.8 L 505.6 491.1 L 515.7 503.9 L 525.8 512.9 L 536 489.8 L 546.1 507.2 L 556.2 511.1 L 566.3 497.6 L 576.4 482.3 L 586.5 482.6 L 596.6 465.1 L 606.7 470.2 L 616.9 457 L 627 457.2 L 637.1 446.8 L 647.2 455.3 L 657.3 465.8 L 667.4 475.1 L 677.5 482.8 L 687.6 487.6 L 697.8 500.9 L 707.9 503.6 L 718 505.2 L 728.1 507.2 L 738.2 509 L 748.3 514.7 L 758.4 512.3 L 768.5 517.4 L 778.7 523.8 L 788.8 524.5 L 798.9 527.3 L 809 531.2 L 819.1 534.2 L 829.2 535.5 L 839.3 537.7 L 849.4 538.9 L 859.6 539.7 L 869.7 540 L 879.8 540 L 889.9 540 L 900 540" stroke-opacity="0.67"/>
<path d="M 0 560 L 10.1 560 L 20.2 560 L 30.3 560 L 40.4 560 L 50.6 560 L 60.7 560 L 70.8 560 L 80.9 560 L 91 559.9 L 101.1 559.6 L 111.2 558.6 L 121.3 557.3 L 131.5 554.9 L 141.6 551.6 L 151.7 548.4 L 161.8 545.3 L 171.9 543.1 L 182 539.3 L 192.1 540 L 202.2 539.1 L 212.4 531.6 L 222.5 529.3 L 232.6 530.4 L 242.7 522 L 252.8 514.7 L 262.9 514.7 L 273 507.7 L 283.1 501.1 L 293.3 482.2 L 303.4 479.8 L 313.5 479.4 L 323.6 479.7 L 333.7 479.8 L 343.8 468.2 L 353.9 459 L 364 455.8 L 374.2 458.1 L 384.3 455.3 L 394.4 453 L 404.5 461.1 L 414.6 487.8 L 424.7 485.3 L 434.8 501.5 L 444.9 537 L 455.1 543.2 L 465.2 555 L 475.3 537 L 485.4 535.9 L 495.5 514.2 L 505.6 521.8 L 515.7 491.8 L 525.8 488 L 536 493 L 546.1 473.4 L 556.2 471.5 L 566.3 488.9 L 576.4 472.3 L 586.5 471.1 L 596.6 482.1 L 606.7 483.2 L 616.9 485.4 L 627 484.3 L 637.1 482.9 L 647.2 480.1 L 657.3 499 L 667.4 509.6 L 677.5 504.4 L 687.6 513.3 L 697.8 525.1 L 707.9 526.5 L 718 529.5 L 728.1 529.2 L 738.2 528.8 L 748.3 534.3 L 758.4 535.9 L 768.5 538.5 L 778.7 544.4 L 788.8 547.4 L 798.9 551.5 L 809 554.4 L 819.1 556.1 L 829.2 557.6 L 839.3 558.8 L 849.4 559.7 L 859.6 560 L 869.7 560 L 879.8 560 L 889.9 560 L 900 560" stroke-opacity="0.62"/>
<path d="M 0 580 L 10.1 580 L 20.2 580 L 30.3 580 L 40.4 580 L 50.6 580 L 60.7 580 L 70.8 580 L 80.9 580 L 91 580 L 101.1 579.5 L 111.2 578.7 L 121.3 576.8 L 131.5 574.6 L 141.6 572.2 L 151.7 569.3 L 161.8 566.3 L 171.9 564.9 L 182 565 L 192.1 559.4 L 202.2 558.2 L 212.4 555.2 L 222.5 557.4 L 232.6 548.6 L 242.7 544.3 L 252.8 541.1 L 262.9 525.5 L 273 521.2 L 283.1 517.5 L 293.3 508.2 L 303.4 510.5 L 313.5 499.6 L 323.6 511.6 L 333.7 518.7 L 343.8 515.1 L 353.9 519.5 L 364 520.7 L 374.2 523.6 L 384.3 525.3 L 394.4 539 L 404.5 534.3 L 414.6 550.1 L 424.7 552.9 L 434.8 544.4 L 444.9 559.5 L 455.1 564.7 L 465.2 547.4 L 475.3 538.6 L 485.4 535.7 L 495.5 514 L 505.6 500.8 L 515.7 497.5 L 525.8 492 L 536 478.7 L 546.1 484.8 L 556.2 482.9 L 566.3 484.1 L 576.4 491.2 L 586.5 509.5 L 596.6 502.9 L 606.7 517.6 L 616.9 511.7 L 627 506.5 L 637.1 509.6 L 647.2 523.7 L 657.3 517.3 L 667.4 527.1 L 677.5 533.9 L 687.6 533.9 L 697.8 544.6 L 707.9 546.1 L 718 551.8 L 728.1 551.6 L 738.2 557.6 L 748.3 557.7 L 758.4 563.4 L 768.5 564.3 L 778.7 569.3 L 788.8 570.5 L 798.9 575.1 L 809 576.9 L 819.1 578.4 L 829.2 579.3 L 839.3 579.6 L 849.4 580 L 859.6 580 L 869.7 580 L 879.8 580 L 889.9 580 L 900 580" stroke-opacity="0.56"/>
<path d="M 0 600 L 10.1 600 L 20.2 600 L 30.3 600 L 40.4 600 L 50.6 600 L 60.7 600 L 70.8 600 L 80.9 600 L 91 600 L 101.1 599.9 L 111.2 599.2 L 121.3 598.2 L 131.5 596.8 L 141.6 595.6 L 151.7 593.5 L 161.8 590.9 L 171.9 586.9 L 182 585.2 L 192.1 582.5 L 202.2 580.8 L 212.4 575.6 L 222.5 574.4 L 232.6 565.6 L 242.7 566.4 L 252.8 559.7 L 262.9 554.6 L 273 546 L 283.1 548.6 L 293.3 537.8 L 303.4 545.5 L 313.5 541.3 L 323.6 562.3 L 333.7 556.9 L 343.8 572.9 L 353.9 583.5 L 364 582.4 L 374.2 579 L 384.3 577.2 L 394.4 575.3 L 404.5 575.1 L 414.6 554.2 L 424.7 557.2 L 434.8 550.2 L 444.9 549.6 L 455.1 557.3 L 465.2 546.7 L 475.3 529.2 L 485.4 533.6 L 495.5 521.2 L 505.6 500.3 L 515.7 502.5 L 525.8 501.1 L 536 498.3 L 546.1 503.7 L 556.2 521.2 L 566.3 525.5 L 576.4 526.9 L 586.5 537.2 L 596.6 547.6 L 606.7 551.4 L 616.9 551.8 L 627 540.5 L 637.1 545.4 L 647.2 545.8 L 657.3 545.3 L 667.4 543.3 L 677.5 551.2 L 687.6 556.3 L 697.8 567.7 L 707.9 570.8 L 718 579.8 L 728.1 580.3 L 738.2 585.6 L 748.3 586.7 L 758.4 590.1 L 768.5 592.7 L 778.7 595.5 L 788.8 596.6 L 798.9 598.1 L 809 598.3 L 819.1 599.3 L 829.2 599.8 L 839.3 600 L 849.4 600 L 859.6 600 L 869.7 600 L 879.8 600 L 889.9 600 L 900 600" stroke-opacity="0.51"/>
<path d="M 0 620 L 10.1 620 L 20.2 620 L 30.3 620 L 40.4 620 L 50.6 620 L 60.7 620 L 70.8 620 L 80.9 620 L 91 620 L 101.1 620 L 111.2 619.9 L 121.3 619.3 L 131.5 617.8 L 141.6 616.8 L 151.7 614.7 L 161.8 611.8 L 171.9 608.1 L 182 605.2 L 192.1 601.2 L 202.2 599.2 L 212.4 598.1 L 222.5 596 L 232.6 589.5 L 242.7 589.1 L 252.8 589.7 L 262.9 586.2 L 273 585 L 283.1 582.5 L 293.3 591.9 L 303.4 590.2 L 313.5 600.6 L 323.6 596.8 L 333.7 603.8 L 343.8 614.4 L 353.9 607.8 L 364 615.6 L 374.2 603.6 L 384.3 596.9 L 394.4 582.7 L 404.5 568.5 L 414.6 561.4 L 424.7 549.7 L 434.8 550 L 444.9 543.7 L 455.1 538.9 L 465.2 539.8 L 475.3 542.2 L 485.4 535.6 L 495.5 533.9 L 505.6 549.3 L 515.7 534.7 L 525.8 534.1 L 536 535.9 L 546.1 535.9 L 556.2 544.9 L 566.3 547.2 L 576.4 557.6 L 586.5 558.5 L 596.6 565.1 L 606.7 561.1 L 616.9 568.7 L 627 569.4 L 637.1 566.2 L 647.2 571.2 L 657.3 567.4 L 667.4 579.2 L 677.5 578.9 L 687.6 588.5 L 697.8 599.7 L 707.9 603 L 718 606.6 L 728.1 612.1 L 738.2 615 L 748.3 615.1 L 758.4 615.5 L 768.5 618 L 778.7 616.2 L 788.8 617.3 L 798.9 618.5 L 809 619.1 L 819.1 619.3 L 829.2 619.7 L 839.3 620 L 849.4 620 L 859.6 620 L 869.7 620 L 879.8 620 L 889.9 620 L 900 620" stroke-opacity="0.46"/>
<path d="M 0 640 L 10.1 640 L 20.2 640 L 30.3 640 L 40.4 640 L 50.6 640 L 60.7 640 L 70.8 640 L 80.9 640 L 91 640 L 101.1 640 L 111.2 640 L 121.3 639.9 L 131.5 639.1 L 141.6 637.9 L 151.7 636.1 L 161.8 633.5 L 171.9 630.9 L 182 628.1 L 192.1 624.5 L 202.2 623.5 L 212.4 622.2 L 222.5 624.8 L 232.6 621 L 242.7 626.1 L 252.8 625.5 L 262.9 629.9 L 273 624.8 L 283.1 625 L 293.3 627.3 L 303.4 624.4 L 313.5 619.3 L 323.6 626.8 L 333.7 627.9 L 343.8 618.5 L 353.9 624.8 L 364 611.7 L 374.2 610.3 L 384.3 604.1 L 394.4 586.2 L 404.5 584.3 L 414.6 577.5 L 424.7 560.5 L 434.8 570.8 L 444.9 563.4 L 455.1 568.7 L 465.2 578.4 L 475.3 576.2 L 485.4 576.7 L 495.5 579.4 L 505.6 582.9 L 515.7 569.7 L 525.8 583.4 L 536 568.6 L 546.1 562.5 L 556.2 563.6 L 566.3 579.4 L 576.4 582.1 L 586.5 577.6 L 596.6 583.7 L 606.7 589.7 L 616.9 592.8 L 627 594 L 637.1 598.4 L 647.2 608 L 657.3 611.3 L 667.4 614.4 L 677.5 615 L 687.6 625.2 L 697.8 626.9 L 707.9 634.2 L 718 636.7 L 728.1 638.7 L 738.2 638.6 L 748.3 637.6 L 758.4 638.5 L 768.5 636.4 L 778.7 636.5 L 788.8 636.7 L 798.9 638.2 L 809 638.9 L 819.1 639.7 L 829.2 640 L 839.3 640 L 849.4 640 L 859.6 640 L 869.7 640 L 879.8 640 L 889.9 640 L 900 640" stroke-opacity="0.42"/>
<path d="M 0 660 L 10.1 660 L 20.2 660 L 30.3 660 L 40.4 660 L 50.6 660 L 60.7 660 L 70.8 660 L 80.9 660 L 91 660 L 101.1 660 L 111.2 660 L 121.3 660 L 131.5 660 L 141.6 659.3 L 151.7 658.3 L 161.8 656.7 L 171.9 655.4 L 182 653.8 L 192.1 651.2 L 202.2 651.3 L 212.4 653 L 222.5 650.8 L 232.6 651.8 L 242.7 653.8 L 252.8 655.4 L 262.9 656.5 L 273 653 L 283.1 652.9 L 293.3 648.3 L 303.4 643.4 L 313.5 636.1 L 323.6 632.5 L 333.7 629.9 L 343.8 630 L 353.9 625.8 L 364 625.4 L 374.2 623.7 L 384.3 609.2 L 394.4 606.2 L 404.5 602.5 L 414.6 597.8 L 424.7 592.6 L 434.8 594.1 L 444.9 598.8 L 455.1 592.7 L 465.2 604.3 L 475.3 610 L 485.4 612 L 495.5 599.8 L 505.6 607.8 L 515.7 610.5 L 525.8 605.8 L 536 595.9 L 546.1 601.8 L 556.2 599.8 L 566.3 601.8 L 576.4 601.9 L 586.5 608.4 L 596.6 615.5 L 606.7 629.4 L 616.9 629.1 L 627 639.5 L 637.1 638.1 L 647.2 648.6 L 657.3 646.7 L 667.4 648.7 L 677.5 653.9 L 687.6 649.5 L 697.8 653.9 L 707.9 652.6 L 718 654.2 L 728.1 654.5 L 738.2 656.5 L 748.3 655.9 L 758.4 656.2 L 768.5 656.3 L 778.7 656.8 L 788.8 657.9 L 798.9 658.7 L 809 659.8 L 819.1 660 L 829.2 660 L 839.3 660 L 849.4 660 L 859.6 660 L 869.7 660 L 879.8 660 L 889.9 660 L 900 660" stroke-opacity="0.37"/>
<path d="M 0 680 L 10.1 680 L 20.2 680 L 30.3 680 L 40.4 680 L 50.6 680 L 60.7 680 L 70.8 680 L 80.9 680 L 91 680 L 101.1 680 L 111.2 680 L 121.3 680 L 131.5 680 L 141.6 680 L 151.7 679.7 L 161.8 679.3 L 171.9 678.4 L 182 678.3 L 192.1 678 L 202.2 676.7 L 212.4 676.9 L 222.5 676.2 L 232.6 675.8 L 242.7 678 L 252.8 675.9 L 262.9 673.9 L 273 671.2 L 283.1 671.1 L 293.3 663.2 L 303.4 658.9 L 313.5 652.7 L 323.6 652.2 L 333.7 650.3 L 343.8 641.6 L 353.9 641.5 L 364 641.5 L 374.2 640.2 L 384.3 642.1 L 394.4 638.2 L 404.5 643.8 L 414.6 639.2 L 424.7 628.1 L 434.8 633.1 L 444.9 631 L 455.1 627.4 L 465.2 625.5 L 475.3 622.8 L 485.4 625.9 L 495.5 630.3 L 505.6 630.8 L 515.7 635.4 L 525.8 633.6 L 536 630.8 L 546.1 636.5 L 556.2 634.8 L 566.3 639.1 L 576.4 647.7 L 586.5 650.2 L 596.6 655.6 L 606.7 662.8 L 616.9 666.2 L 627 671.5 L 637.1 678.6 L 647.2 672.9 L 657.3 672.8 L 667.4 672.8 L 677.5 670 L 687.6 671.4 L 697.8 673.1 L 707.9 671.1 L 718 672.8 L 728.1 673 L 738.2 674.7 L 748.3 675.3 L 758.4 676.1 L 768.5 676.8 L 778.7 678.4 L 788.8 679.3 L 798.9 680 L 809 680 L 819.1 680 L 829.2 680 L 839.3 680 L 849.4 680 L 859.6 680 L 869.7 680 L 879.8 680 L 889.9 680 L 900 680" stroke-opacity="0.33"/>
<path d="M 0 700 L 10.1 700 L 20.2 700 L 30.3 700 L 40.4 700 L 50.6 700 L 60.7 700 L 70.8 700 L 80.9 700 L 91 700 L 101.1 700 L 111.2 700 L 121.3 700 L 131.5 700 L 141.6 700 L 151.7 700 L 161.8 700 L 171.9 699.9 L 182 699.5 L 192.1 699.5 L 202.2 698.4 L 212.4 697.4 L 222.5 697 L 232.6 695.5 L 242.7 694.7 L 252.8 693.5 L 262.9 690.4 L 273 689.3 L 283.1 686.2 L 293.3 682.9 L 303.4 681.1 L 313.5 677.5 L 323.6 673.9 L 333.7 672.8 L 343.8 673.1 L 353.9 667.6 L 364 674.6 L 374.2 672.1 L 384.3 674.3 L 394.4 668.1 L 404.5 668.4 L 414.6 662.5 L 424.7 657 L 434.8 653.9 L 444.9 648 L 455.1 647.4 L 465.2 648.4 L 475.3 652.7 L 485.4 658.7 L 495.5 655.9 L 505.6 663.7 L 515.7 661.2 L 525.8 672.5 L 536 675.2 L 546.1 679.9 L 556.2 677.1 L 566.3 680.6 L 576.4 683.3 L 586.5 688.2 L 596.6 689.1 L 606.7 695.7 L 616.9 692.1 L 627 698.5 L 637.1 698.1 L 647.2 693.6 L 657.3 694.8 L 667.4 690.2 L 677.5 688.2 L 687.6 690.6 L 697.8 689.3 L 707.9 691.2 L 718 691.7 L 728.1 692.8 L 738.2 694.9 L 748.3 696.5 L 758.4 698.1 L 768.5 699.2 L 778.7 699.8 L 788.8 700 L 798.9 700 L 809 700 L 819.1 700 L 829.2 700 L 839.3 700 L 849.4 700 L 859.6 700 L 869.7 700 L 879.8 700 L 889.9 700 L 900 700" stroke-opacity="0.29"/>
<path d="M 0 720 L 10.1 720 L 20.2 720 L 30.3 720 L 40.4 720 L 50.6 720 L 60.7 720 L 70.8 720 L 80.9 720 L 91 720 L 101.1 720 L 111.2 720 L 121.3 720 L 131.5 720 L 141.6 720 L 151.7 720 L 161.8 720 L 171.9 720 L 182 720 L 192.1 719.7 L 202.2 719.2 L 212.4 718 L 222.5 716.7 L 232.6 716.1 L 242.7 714.4 L 252.8 714.1 L 262.9 711.5 L 273 711.9 L 283.1 711.2 L 293.3 708.1 L 303.4 707.9 L 313.5 706.2 L 323.6 700.6 L 333.7 699.1 L 343.8 698 L 353.9 693.8 L 364 696.9 L 374.2 692.3 L 384.3 693.4 L 394.4 692.7 L 404.5 690.1 L 414.6 685 L 424.7 685.2 L 434.8 687.2 L 444.9 681.5 L 455.1 685.2 L 465.2 681.8 L 475.3 683.4 L 485.4 691.5 L 495.5 692.3 L 505.6 703.4 L 515.7 702.8 L 525.8 712.1 L 536 708.2 L 546.1 709.9 L 556.2 711.3 L 566.3 711.9 L 576.4 708.9 L 586.5 713.4 L 596.6 710.7 L 606.7 710.9 L 616.9 709 L 627 711.9 L 637.1 708.9 L 647.2 711.2 L 657.3 711.3 L 667.4 709.6 L 677.5 709.6 L 687.6 710.9 L 697.8 711.2 L 707.9 713.3 L 718 714.8 L 728.1 716.8 L 738.2 718.1 L 748.3 719.1 L 758.4 719.8 L 768.5 720 L 778.7 720 L 788.8 720 L 798.9 720 L 809 720 L 819.1 720 L 829.2 720 L 839.3 720 L 849.4 720 L 859.6 720 L 869.7 720 L 879.8 720 L 889.9 720 L 900 720" stroke-opacity="0.25"/>
<path d="M 0 740 L 10.1 740 L 20.2 740 L 30.3 740 L 40.4 740 L 50.6 740 L 60.7 740 L 70.8 740 L 80.9 740 L 91 740 L 101.1 740 L 111.2 740 L 121.3 740 L 131.5 740 L 141.6 740 L 151.7 740 L 161.8 740 L 171.9 740 L 182 740 L 192.1 740 L 202.2 740 L 212.4 739.6 L 222.5 739 L 232.6 737.9 L 242.7 737 L 252.8 736 L 262.9 735.1 L 273 734.2 L 283.1 734.1 L 293.3 733.2 L 303.4 730.8 L 313.5 729.2 L 323.6 725.8 L 333.7 723.7 L 343.8 721.5 L 353.9 718.4 L 364 719 L 374.2 718.9 L 384.3 715.3 L 394.4 719 L 404.5 716.4 L 414.6 719.4 L 424.7 718.8 L 434.8 719 L 444.9 720.8 L 455.1 720.8 L 465.2 720.7 L 475.3 725.6 L 485.4 726.5 L 495.5 733.2 L 505.6 731 L 515.7 735.2 L 525.8 734.6 L 536 736.9 L 546.1 735.3 L 556.2 733.3 L 566.3 732.1 L 576.4 731.4 L 586.5 727.2 L 596.6 728.4 L 606.7 726.5 L 616.9 727.2 L 627 729.2 L 637.1 729.3 L 647.2 730.3 L 657.3 733 L 667.4 733.3 L 677.5 734.3 L 687.6 734.9 L 697.8 736.5 L 707.9 737.7 L 718 738.3 L 728.1 739.3 L 738.2 739.9 L 748.3 740 L 758.4 740 L 768.5 740 L 778.7 740 L 788.8 740 L 798.9 740 L 809 740 L 819.1 740 L 829.2 740 L 839.3 740 L 849.4 740 L 859.6 740 L 869.7 740 L 879.8 740 L 889.9 740 L 900 740" stroke-opacity="0.22"/>
<path d="M 0 760 L 10.1 760 L 20.2 760 L 30.3 760 L 40.4 760 L 50.6 760 L 60.7 760 L 70.8 760 L 80.9 760 L 91 760 L 101.1 760 L 111.2 760 L 121.3 760 L 131.5 760 L 141.6 760 L 151.7 760 L 161.8 760 L 171.9 760 L 182 760 L 192.1 760 L 202.2 760 L 212.4 760 L 222.5 760 L 232.6 759.9 L 242.7 759.5 L 252.8 758.9 L 262.9 758.2 L 273 757.6 L 283.1 756.5 L 293.3 756.2 L 303.4 754.8 L 313.5 753.8 L 323.6 750.2 L 333.7 748.5 L 343.8 746.7 L 353.9 745.1 L 364 745.2 L 374.2 744.9 L 384.3 746.7 L 394.4 745.8 L 404.5 747.5 L 414.6 750.4 L 424.7 749.2 L 434.8 751.9 L 444.9 752.3 L 455.1 753.4 L 465.2 753.6 L 475.3 753.8 L 485.4 753.4 L 495.5 756.7 L 505.6 755 L 515.7 756.4 L 525.8 754.5 L 536 756.1 L 546.1 753.8 L 556.2 751.5 L 566.3 750.9 L 576.4 749.7 L 586.5 749.2 L 596.6 750.2 L 606.7 748.5 L 616.9 750.9 L 627 752.3 L 637.1 753.8 L 647.2 755.4 L 657.3 755.7 L 667.4 757.4 L 677.5 758.2 L 687.6 758.8 L 697.8 759.2 L 707.9 759.8 L 718 760 L 728.1 760 L 738.2 760 L 748.3 760 L 758.4 760 L 768.5 760 L 778.7 760 L 788.8 760 L 798.9 760 L 809 760 L 819.1 760 L 829.2 760 L 839.3 760 L 849.4 760 L 859.6 760 L 869.7 760 L 879.8 760 L 889.9 760 L 900 760" stroke-opacity="0.19"/>
<path d="M 0 780 L 10.1 780 L 20.2 780 L 30.3 780 L 40.4 780 L 50.6 780 L 60.7 780 L 70.8 780 L 80.9 780 L 91 780 L 101.1 780 L 111.2 780 L 121.3 780 L 131.5 780 L 141.6 780 L 151.7 780 L 161.8 780 L 171.9 780 L 182 780 L 192.1 780 L 202.2 780 L 212.4 780 L 222.5 780 L 232.6 780 L 242.7 780 L 252.8 780 L 262.9 780 L 273 779.6 L 283.1 779 L 293.3 778.4 L 303.4 777.5 L 313.5 776.9 L 323.6 775.6 L 333.7 774.7 L 343.8 773.8 L 353.9 773.5 L 364 773.5 L 374.2 773.2 L 384.3 774.7 L 394.4 775.7 L 404.5 776.1 L 414.6 777.8 L 424.7 778.1 L 434.8 778 L 444.9 776.9 L 455.1 777.5 L 465.2 777.2 L 475.3 774.9 L 485.4 773.9 L 495.5 775.3 L 505.6 774.5 L 515.7 772.5 L 525.8 773.7 L 536 773.3 L 546.1 772.2 L 556.2 773.2 L 566.3 773.7 L 576.4 773.1 L 586.5 772.9 L 596.6 773.9 L 606.7 775.3 L 616.9 776.1 L 627 776.8 L 637.1 777.9 L 647.2 778.4 L 657.3 779 L 667.4 779.5 L 677.5 779.9 L 687.6 780 L 697.8 780 L 707.9 780 L 718 780 L 728.1 780 L 738.2 780 L 748.3 780 L 758.4 780 L 768.5 780 L 778.7 780 L 788.8 780 L 798.9 780 L 809 780 L 819.1 780 L 829.2 780 L 839.3 780 L 849.4 780 L 859.6 780 L 869.7 780 L 879.8 780 L 889.9 780 L 900 780" stroke-opacity="0.16"/>
<path d="M 151.7 318.5 L 151.7 335.3 L 151.7 351.8 L 151.7 370.1 L 151.7 388.9 L 151.7 405.9 L 151.7 423 L 151.7 444.8 L 151.7 467.8 L 151.7 494.7 L 151.7 512.8 L 151.7 531.4 L 151.7 548.4 L 151.7 569.3 L 151.7 593.5 L 151.7 614.7" stroke-opacity="0.09"/>
<path d="M 182 278.1 L 182 295.8 L 182 312.6 L 182 325.9 L 182 342 L 182 360.3 L 182 377 L 182 392.6 L 182 413.7 L 182 443.9 L 182 470 L 182 495.3 L 182 512 L 182 522.4 L 182 539.3 L 182 565 L 182 585.2 L 182 605.2 L 182 628.1 L 182 653.8 L 182 678.3" stroke-opacity="0.12"/>
<path d="M 212.4 237.4 L 212.4 258.3 L 212.4 278.1 L 212.4 292.9 L 212.4 304.8 L 212.4 313.8 L 212.4 332.3 L 212.4 350.3 L 212.4 358 L 212.4 379 L 212.4 404.7 L 212.4 438.6 L 212.4 475.5 L 212.4 489.8 L 212.4 499.4 L 212.4 515.8 L 212.4 531.6 L 212.4 555.2 L 212.4 575.6 L 212.4 598.1 L 212.4 622.2 L 212.4 653 L 212.4 676.9 L 212.4 697.4" stroke-opacity="0.14"/>
<path d="M 242.7 215.4 L 242.7 235.8 L 242.7 256.5 L 242.7 272 L 242.7 282.4 L 242.7 294.6 L 242.7 312.6 L 242.7 331.1 L 242.7 334.7 L 242.7 350 L 242.7 368.4 L 242.7 412.9 L 242.7 442.9 L 242.7 456.5 L 242.7 460 L 242.7 470.7 L 242.7 494.7 L 242.7 522 L 242.7 544.3 L 242.7 566.4 L 242.7 589.1 L 242.7 626.1 L 242.7 653.8 L 242.7 678 L 242.7 694.7 L 242.7 714.4" stroke-opacity="0.17"/>
<path d="M 273 194.7 L 273 214.8 L 273 233.5 L 273 251 L 273 263 L 273 268.6 L 273 280.2 L 273 305.3 L 273 315.6 L 273 323.3 L 273 343.5 L 273 382.4 L 273 423.9 L 273 446 L 273 448.9 L 273 438 L 273 460.7 L 273 478.7 L 273 507.7 L 273 521.2 L 273 546 L 273 585 L 273 624.8 L 273 653 L 273 671.2 L 273 689.3 L 273 711.9 L 273 734.2" stroke-opacity="0.20"/>
<path d="M 303.4 175.1 L 303.4 194 L 303.4 215.6 L 303.4 234.3 L 303.4 245.2 L 303.4 245.4 L 303.4 259.9 L 303.4 271.4 L 303.4 279.2 L 303.4 296.9 L 303.4 311.7 L 303.4 350 L 303.4 400.2 L 303.4 433.7 L 303.4 439.4 L 303.4 417.6 L 303.4 432.8 L 303.4 445.1 L 303.4 474.6 L 303.4 479.8 L 303.4 510.5 L 303.4 545.5 L 303.4 590.2 L 303.4 624.4 L 303.4 643.4 L 303.4 658.9 L 303.4 681.1 L 303.4 707.9 L 303.4 730.8 L 303.4 754.8" stroke-opacity="0.23"/>
<path d="M 333.7 174.5 L 333.7 198 L 333.7 217.7 L 333.7 228.4 L 333.7 231.6 L 333.7 237.3 L 333.7 250.1 L 333.7 261.8 L 333.7 266.6 L 333.7 277 L 333.7 312.5 L 333.7 349.7 L 333.7 399.8 L 333.7 397.3 L 333.7 378 L 333.7 398.9 L 333.7 420.8 L 333.7 446.9 L 333.7 462.2 L 333.7 479.8 L 333.7 518.7 L 333.7 556.9 L 333.7 603.8 L 333.7 627.9 L 333.7 629.9 L 333.7 650.3 L 333.7 672.8 L 333.7 699.1 L 333.7 723.7 L 333.7 748.5 L 333.7 774.7" stroke-opacity="0.27"/>
<path d="M 364 155.1 L 364 173.5 L 364 195.8 L 364 208.6 L 364 212.7 L 364 226.3 L 364 240.3 L 364 256.7 L 364 265.7 L 364 273.2 L 364 279.5 L 364 330.4 L 364 382.5 L 364 377.9 L 364 371.1 L 364 346.2 L 364 354.3 L 364 380.2 L 364 399 L 364 416 L 364 455.8 L 364 520.7 L 364 582.4 L 364 615.6 L 364 611.7 L 364 625.4 L 364 641.5 L 364 674.6 L 364 696.9 L 364 719 L 364 745.2 L 364 773.5" stroke-opacity="0.31"/>
<path d="M 394.4 156.6 L 394.4 177 L 394.4 193.4 L 394.4 201.7 L 394.4 199.4 L 394.4 211.9 L 394.4 232.6 L 394.4 236.2 L 394.4 251 L 394.4 262.6 L 394.4 300.6 L 394.4 347.6 L 394.4 394.1 L 394.4 374.7 L 394.4 347.2 L 394.4 317.4 L 394.4 347.2 L 394.4 374.3 L 394.4 362.9 L 394.4 403.7 L 394.4 453 L 394.4 539 L 394.4 575.3 L 394.4 582.7 L 394.4 586.2 L 394.4 606.2 L 394.4 638.2 L 394.4 668.1 L 394.4 692.7 L 394.4 719 L 394.4 745.8 L 394.4 775.7 L 394.4 798.7" stroke-opacity="0.35"/>
<path d="M 424.7 137.7 L 424.7 157.4 L 424.7 179 L 424.7 185.8 L 424.7 190.4 L 424.7 198.5 L 424.7 214 L 424.7 215.4 L 424.7 223.7 L 424.7 222.8 L 424.7 268.6 L 424.7 314.1 L 424.7 343.8 L 424.7 332.6 L 424.7 300.5 L 424.7 291.1 L 424.7 317.2 L 424.7 349 L 424.7 366.3 L 424.7 359.3 L 424.7 426.2 L 424.7 485.3 L 424.7 552.9 L 424.7 557.2 L 424.7 549.7 L 424.7 560.5 L 424.7 592.6 L 424.7 628.1 L 424.7 657 L 424.7 685.2 L 424.7 718.8 L 424.7 749.2 L 424.7 778.1 L 424.7 798.6" stroke-opacity="0.39"/>
<path d="M 455.1 138.5 L 455.1 159 L 455.1 172.7 L 455.1 184.3 L 455.1 190.8 L 455.1 201.7 L 455.1 224.3 L 455.1 229 L 455.1 232.8 L 455.1 255.3 L 455.1 300.9 L 455.1 317.3 L 455.1 322.1 L 455.1 299.4 L 455.1 255.5 L 455.1 285.8 L 455.1 296.3 L 455.1 298 L 455.1 349.1 L 455.1 396.3 L 455.1 476.4 L 455.1 543.2 L 455.1 564.7 L 455.1 557.3 L 455.1 538.9 L 455.1 568.7 L 455.1 592.7 L 455.1 627.4 L 455.1 647.4 L 455.1 685.2 L 455.1 720.8 L 455.1 753.4 L 455.1 777.5 L 455.1 797.7" stroke-opacity="0.43"/>
<path d="M 485.4 138.8 L 485.4 154.3 L 485.4 166.4 L 485.4 177.8 L 485.4 188.6 L 485.4 201.9 L 485.4 210.3 L 485.4 229.3 L 485.4 248 L 485.4 288.4 L 485.4 333 L 485.4 323.2 L 485.4 300.9 L 485.4 276.3 L 485.4 249.4 L 485.4 282.9 L 485.4 270.1 L 485.4 299.2 L 485.4 331.1 L 485.4 411 L 485.4 494.8 L 485.4 535.9 L 485.4 535.7 L 485.4 533.6 L 485.4 535.6 L 485.4 576.7 L 485.4 612 L 485.4 625.9 L 485.4 658.7 L 485.4 691.5 L 485.4 726.5 L 485.4 753.4 L 485.4 773.9 L 485.4 795.1" stroke-opacity="0.44"/>
<path d="M 515.7 138.5 L 515.7 154.8 L 515.7 165.5 L 515.7 177 L 515.7 192.2 L 515.7 197.4 L 515.7 207.1 L 515.7 225.2 L 515.7 248.7 L 515.7 300.9 L 515.7 317.7 L 515.7 323.8 L 515.7 292.2 L 515.7 280 L 515.7 293.7 L 515.7 305.6 L 515.7 302.7 L 515.7 318.2 L 515.7 384.3 L 515.7 440.5 L 515.7 503.9 L 515.7 491.8 L 515.7 497.5 L 515.7 502.5 L 515.7 534.7 L 515.7 569.7 L 515.7 610.5 L 515.7 635.4 L 515.7 661.2 L 515.7 702.8 L 515.7 735.2 L 515.7 756.4 L 515.7 772.5 L 515.7 795.4" stroke-opacity="0.40"/>
<path d="M 546.1 153.1 L 546.1 165.6 L 546.1 179.7 L 546.1 193.5 L 546.1 203.3 L 546.1 214.9 L 546.1 240.9 L 546.1 267.3 L 546.1 303.1 L 546.1 295.1 L 546.1 267.7 L 546.1 277.9 L 546.1 292.4 L 546.1 315.1 L 546.1 324.4 L 546.1 335 L 546.1 380.4 L 546.1 425 L 546.1 489.1 L 546.1 507.2 L 546.1 473.4 L 546.1 484.8 L 546.1 503.7 L 546.1 535.9 L 546.1 562.5 L 546.1 601.8 L 546.1 636.5 L 546.1 679.9 L 546.1 709.9 L 546.1 735.3 L 546.1 753.8 L 546.1 772.2 L 546.1 796.5" stroke-opacity="0.35"/>
<path d="M 576.4 154 L 576.4 170.6 L 576.4 185.5 L 576.4 196.7 L 576.4 212.7 L 576.4 228.5 L 576.4 255.2 L 576.4 280.9 L 576.4 286.5 L 576.4 271.2 L 576.4 259.3 L 576.4 271.9 L 576.4 301.7 L 576.4 300.3 L 576.4 322.1 L 576.4 340.5 L 576.4 422.5 L 576.4 477.9 L 576.4 496.8 L 576.4 482.3 L 576.4 472.3 L 576.4 491.2 L 576.4 526.9 L 576.4 557.6 L 576.4 582.1 L 576.4 601.9 L 576.4 647.7 L 576.4 683.3 L 576.4 708.9 L 576.4 731.4 L 576.4 749.7 L 576.4 773.1" stroke-opacity="0.31"/>
<path d="M 606.7 155.6 L 606.7 172.3 L 606.7 186.1 L 606.7 201.9 L 606.7 216.7 L 606.7 239.9 L 606.7 277.3 L 606.7 294.5 L 606.7 292.3 L 606.7 284.4 L 606.7 291.4 L 606.7 294.3 L 606.7 314.3 L 606.7 327.5 L 606.7 330.2 L 606.7 387.8 L 606.7 435.9 L 606.7 462.9 L 606.7 481.2 L 606.7 470.2 L 606.7 483.2 L 606.7 517.6 L 606.7 551.4 L 606.7 561.1 L 606.7 589.7 L 606.7 629.4 L 606.7 662.8 L 606.7 695.7 L 606.7 710.9 L 606.7 726.5 L 606.7 748.5 L 606.7 775.3" stroke-opacity="0.28"/>
<path d="M 637.1 174.6 L 637.1 189 L 637.1 203.3 L 637.1 223.2 L 637.1 249.5 L 637.1 273.2 L 637.1 274.9 L 637.1 278.7 L 637.1 278.9 L 637.1 307.5 L 637.1 323.9 L 637.1 331.3 L 637.1 340.3 L 637.1 369.7 L 637.1 416.3 L 637.1 452.4 L 637.1 459.8 L 637.1 454.3 L 637.1 446.8 L 637.1 482.9 L 637.1 509.6 L 637.1 545.4 L 637.1 566.2 L 637.1 598.4 L 637.1 638.1 L 637.1 678.6 L 637.1 698.1 L 637.1 708.9 L 637.1 729.3 L 637.1 753.8" stroke-opacity="0.24"/>
<path d="M 667.4 195.1 L 667.4 213.2 L 667.4 231.3 L 667.4 252.2 L 667.4 265.6 L 667.4 271.6 L 667.4 271.5 L 667.4 292.6 L 667.4 309.7 L 667.4 322.3 L 667.4 347.9 L 667.4 372.5 L 667.4 413.7 L 667.4 452.4 L 667.4 468.1 L 667.4 464.9 L 667.4 451.6 L 667.4 475.1 L 667.4 509.6 L 667.4 527.1 L 667.4 543.3 L 667.4 579.2 L 667.4 614.4 L 667.4 648.7 L 667.4 672.8 L 667.4 690.2 L 667.4 709.6 L 667.4 733.3" stroke-opacity="0.21"/>
<path d="M 697.8 217.5 L 697.8 237.2 L 697.8 256.5 L 697.8 265.7 L 697.8 272.1 L 697.8 283.7 L 697.8 301.4 L 697.8 318.3 L 697.8 332.8 L 697.8 355.1 L 697.8 380.3 L 697.8 422.8 L 697.8 452.5 L 697.8 451.8 L 697.8 450 L 697.8 475.7 L 697.8 500.9 L 697.8 525.1 L 697.8 544.6 L 697.8 567.7 L 697.8 599.7 L 697.8 626.9 L 697.8 653.9 L 697.8 673.1 L 697.8 689.3 L 697.8 711.2" stroke-opacity="0.18"/>
<path d="M 728.1 239.2 L 728.1 255.1 L 728.1 267.5 L 728.1 281 L 728.1 298.2 L 728.1 315.9 L 728.1 330.6 L 728.1 347.2 L 728.1 373.2 L 728.1 406.2 L 728.1 424.1 L 728.1 438.4 L 728.1 438.6 L 728.1 458.5 L 728.1 481.3 L 728.1 507.2 L 728.1 529.2 L 728.1 551.6 L 728.1 580.3 L 728.1 612.1 L 728.1 638.7 L 728.1 654.5 L 728.1 673 L 728.1 692.8" stroke-opacity="0.15"/>
<path d="M 758.4 256.1 L 758.4 272.4 L 758.4 290.8 L 758.4 308.1 L 758.4 327.5 L 758.4 342.9 L 758.4 367.5 L 758.4 392.5 L 758.4 415.5 L 758.4 429.2 L 758.4 436.4 L 758.4 447.7 L 758.4 468.6 L 758.4 494.4 L 758.4 512.3 L 758.4 535.9 L 758.4 563.4 L 758.4 590.1 L 758.4 615.5 L 758.4 638.5 L 758.4 656.2 L 758.4 676.1" stroke-opacity="0.12"/>
<path d="M 788.8 295.7 L 788.8 314.2 L 788.8 330.7 L 788.8 351 L 788.8 372.6 L 788.8 398.6 L 788.8 417.2 L 788.8 430.5 L 788.8 443.8 L 788.8 462.5 L 788.8 485.3 L 788.8 507.5 L 788.8 524.5 L 788.8 547.4 L 788.8 570.5 L 788.8 596.6 L 788.8 617.3 L 788.8 636.7" stroke-opacity="0.10"/>
</g>
</svg>